<?xml version="1.0" encoding="UTF-8"?>
<svg version="1.1" xmlns="http://www.w3.org/2000/svg" width="120" height="120">
<path d="M0 0 C1.98 0 3.96 0 6 0 C6 0.99 6 1.98 6 3 C6.99 3 7.98 3 9 3 C9 3.99 9 4.98 9 6 C9.99 6 10.98 6 12 6 C12 6.99 12 7.98 12 9 C13.98 9 15.96 9 18 9 C18 9.99 18 10.98 18 12 C18.99 12 19.98 12 21 12 C21 12.99 21 13.98 21 15 C21.99 15 22.98 15 24 15 C24 17.97 24 20.94 24 24 C24.99 24 25.98 24 27 24 C27 24.99 27 25.98 27 27 C27.99 27 28.98 27 30 27 C30 28.98 30 30.96 30 33 C29.01 33 28.02 33 27 33 C27 35.31 27 37.62 27 40 C27.99 40 28.98 40 30 40 C30 40.99 30 41.98 30 43 C30.99 43 31.98 43 33 43 C33 43.99 33 44.98 33 46 C33.99 46 34.98 46 36 46 C36 48.97 36 51.94 36 55 C35.01 55 34.02 55 33 55 C33 55.99 33 56.98 33 58 C32.01 58 31.02 58 30 58 C30 58.99 30 59.98 30 61 C29.01 61 28.02 61 27 61 C27 61.99 27 62.98 27 64 C26.01 64 25.02 64 24 64 C24 64.99 24 65.98 24 67 C20.04 67 16.08 67 12 67 C12 66.01 12 65.02 12 64 C10.02 64 8.04 64 6 64 C6 63.01 6 62.02 6 61 C4.02 61 2.04 61 0 61 C0 61.99 0 62.98 0 64 C-1.98 64 -3.96 64 -6 64 C-6 64.99 -6 65.98 -6 67 C-9.96 67 -13.92 67 -18 67 C-18 66.01 -18 65.02 -18 64 C-18.99 64 -19.98 64 -21 64 C-21 63.01 -21 62.02 -21 61 C-21.99 61 -22.98 61 -24 61 C-24 60.01 -24 59.02 -24 58 C-24.99 58 -25.98 58 -27 58 C-27 57.01 -27 56.02 -27 55 C-27.99 55 -28.98 55 -30 55 C-30 52.03 -30 49.06 -30 46 C-29.01 46 -28.02 46 -27 46 C-27 45.01 -27 44.02 -27 43 C-26.01 43 -25.02 43 -24 43 C-24 42.01 -24 41.02 -24 40 C-23.01 40 -22.02 40 -21 40 C-21 37.69 -21 35.38 -21 33 C-21.99 33 -22.98 33 -24 33 C-24 31.02 -24 29.04 -24 27 C-23.01 27 -22.02 27 -21 27 C-21 26.01 -21 25.02 -21 24 C-20.01 24 -19.02 24 -18 24 C-18 21.03 -18 18.06 -18 15 C-17.01 15 -16.02 15 -15 15 C-15 14.01 -15 13.02 -15 12 C-14.01 12 -13.02 12 -12 12 C-12 11.01 -12 10.02 -12 9 C-10.02 9 -8.04 9 -6 9 C-6 8.01 -6 7.02 -6 6 C-4.6875 4.3125 -4.6875 4.3125 -3 3 C-2.01 3 -1.02 3 0 3 C0 2.01 0 1.02 0 0 Z " fill="#DE0000" transform="translate(57,26)"/>
<path d="M0 0 C1.98 0 3.96 0 6 0 C6 2.97 6 5.94 6 9 C9.96 9 13.92 9 18 9 C18 10.98 18 12.96 18 15 C14.04 15 10.08 15 6 15 C6 16.98 6 18.96 6 21 C11.94 21 17.88 21 24 21 C24 22.98 24 24.96 24 27 C18.06 27 12.12 27 6 27 C6 31.29 6 35.58 6 40 C6.99 40 7.98 40 9 40 C9 39.01 9 38.02 9 37 C9.99 37 10.98 37 12 37 C12 36.01 12 35.02 12 34 C15.96 34 19.92 34 24 34 C24 34.99 24 35.98 24 37 C24.99 37 25.98 37 27 37 C27 37.99 27 38.98 27 40 C27.99 40 28.98 40 30 40 C30 42.97 30 45.94 30 49 C29.01 49 28.02 49 27 49 C27 49.99 27 50.98 27 52 C26.01 52 25.02 52 24 52 C24 52.99 24 53.98 24 55 C20.04 55 16.08 55 12 55 C12 54.01 12 53.02 12 52 C10.02 52 8.04 52 6 52 C6 51.01 6 50.02 6 49 C4.02 49 2.04 49 0 49 C0 49.99 0 50.98 0 52 C-1.98 52 -3.96 52 -6 52 C-6 52.99 -6 53.98 -6 55 C-9.96 55 -13.92 55 -18 55 C-18 54.01 -18 53.02 -18 52 C-18.99 52 -19.98 52 -21 52 C-21 51.01 -21 50.02 -21 49 C-21.99 49 -22.98 49 -24 49 C-24 46.03 -24 43.06 -24 40 C-23.01 40 -22.02 40 -21 40 C-21 39.01 -21 38.02 -21 37 C-20.01 37 -19.02 37 -18 37 C-18 36.01 -18 35.02 -18 34 C-14.04 34 -10.08 34 -6 34 C-6 34.99 -6 35.98 -6 37 C-5.01 37 -4.02 37 -3 37 C-3 37.99 -3 38.98 -3 40 C-2.01 40 -1.02 40 0 40 C0 35.71 0 31.42 0 27 C-5.94 27 -11.88 27 -18 27 C-18 25.02 -18 23.04 -18 21 C-12.06 21 -6.12 21 0 21 C0 19.02 0 17.04 0 15 C-3.96 15 -7.92 15 -12 15 C-12 13.02 -12 11.04 -12 9 C-8.04 9 -4.08 9 0 9 C0 6.03 0 3.06 0 0 Z " fill="#080000" transform="translate(57,32)"/>
<path d="M0 0 C2.97 0 5.94 0 9 0 C9 0.99 9 1.98 9 3 C9.99 3 10.98 3 12 3 C12 3.99 12 4.98 12 6 C11.01 6 10.02 6 9 6 C9 6.99 9 7.98 9 9 C6.03 9 3.06 9 0 9 C0 8.01 0 7.02 0 6 C-0.99 6 -1.98 6 -3 6 C-3 5.01 -3 4.02 -3 3 C-2.01 3 -1.02 3 0 3 C0 2.01 0 1.02 0 0 Z " fill="#DF0000" transform="translate(69,72)"/>
<path d="M0 0 C2.97 0 5.94 0 9 0 C9 0.99 9 1.98 9 3 C9.99 3 10.98 3 12 3 C12 3.99 12 4.98 12 6 C11.01 6 10.02 6 9 6 C9 6.99 9 7.98 9 9 C6.03 9 3.06 9 0 9 C0 8.01 0 7.02 0 6 C-0.99 6 -1.98 6 -3 6 C-3 5.01 -3 4.02 -3 3 C-2.01 3 -1.02 3 0 3 C0 2.01 0 1.02 0 0 Z " fill="#E00000" transform="translate(42,72)"/>
</svg>
